<?xml version="1.0" encoding="UTF-8" standalone="no"?>
<!-- Created with Inkscape (http://www.inkscape.org/) -->

<svg
   width="600"
   height="900"
   viewBox="0 0 158.74999 238.125"
   version="1.1"
   id="svg1"
   inkscape:export-filename="static/img/static/img/shop_lgbtq.png"
   inkscape:export-xdpi="4.8322134"
   inkscape:export-ydpi="4.8322134"
   inkscape:version="1.4.2 (ebf0e940d0, 2025-05-08)"
   sodipodi:docname="markers-sources.svg"
   xml:space="preserve"
   xmlns:inkscape="http://www.inkscape.org/namespaces/inkscape"
   xmlns:sodipodi="http://sodipodi.sourceforge.net/DTD/sodipodi-0.dtd"
   xmlns="http://www.w3.org/2000/svg"
   xmlns:svg="http://www.w3.org/2000/svg"><sodipodi:namedview
     id="namedview1"
     pagecolor="#ffffff"
     bordercolor="#000000"
     borderopacity="0.25"
     inkscape:showpageshadow="2"
     inkscape:pageopacity="0.0"
     inkscape:pagecheckerboard="0"
     inkscape:deskcolor="#d1d1d1"
     inkscape:document-units="mm"
     inkscape:zoom="0.545"
     inkscape:cx="111.92661"
     inkscape:cy="454.12844"
     inkscape:window-width="1600"
     inkscape:window-height="872"
     inkscape:window-x="0"
     inkscape:window-y="0"
     inkscape:window-maximized="1"
     inkscape:current-layer="svg1" /><defs
     id="defs1"><inkscape:path-effect
       effect="mirror_symmetry"
       start_point="85,110"
       end_point="85,238.3438"
       center_point="85,174.1719"
       id="path-effect18"
       is_visible="true"
       lpeversion="1.2"
       lpesatellites=""
       mode="free"
       discard_orig_path="false"
       fuse_paths="false"
       oposite_fuse="false"
       split_items="false"
       split_open="false"
       link_styles="false" /><clipPath
       clipPathUnits="userSpaceOnUse"
       id="clipPath125"><ellipse
         style="display:inline;opacity:1;fill:#ffffff;fill-opacity:1;stroke:#892ca0;stroke-width:48.8764;stroke-dasharray:none;stroke-opacity:1;paint-order:normal"
         id="circle126"
         cx="365.32565"
         cy="240.09737"
         rx="273.12207"
         ry="263.55121" /></clipPath></defs><g
     id="g17"
     style="display:inline;stroke:#ff7f2a;stroke-opacity:1"
     inkscape:label="Marker"><path
       style="display:inline;opacity:1;fill:#ff2ad4;fill-opacity:1;stroke:#ff7f2a;stroke-width:0;stroke-dasharray:none;stroke-opacity:1;paint-order:normal"
       d="M 12.821368,110.97094 C 30.253341,143.61699 46.770491,145.56098 60.17282,176.18831 79.492592,220.33832 73.82995,238.50383 85,238.34322 L 85.0096,149.7611 C 74.2356,161.13415 40.541499,129.25369 12.821368,110.97094 Z m 144.357262,0 c -17.43197,32.64605 -33.94912,34.59004 -47.35145,65.21737 C 90.507408,220.33832 96.17005,238.50383 85,238.34322 L 84.9904,149.7611 c 10.774,11.37305 44.4681,-20.50741 72.18823,-38.79016 z"
       id="path18"
       sodipodi:nodetypes="csccc"
       transform="translate(-5.6250076,-0.52916663)"
       inkscape:label="Marker point"
       inkscape:original-d="M 12.821368,110.97094 C 30.253341,143.61699 46.770491,145.56098 60.17282,176.18831 79.492592,220.33832 73.82995,238.50383 85,238.34322 l 0.0096,-88.58212 C 74.2356,161.13415 40.541499,129.25369 12.821368,110.97094 Z"
       inkscape:path-effect="#path-effect18" /><g
       id="g36"
       transform="matrix(0.26458333,0,0,0.27419168,-17.284083,13.542298)"
       inkscape:label="pride-vlag"
       style="display:none;stroke:#ff7f2a;stroke-opacity:1"
       clip-path="url(#clipPath125)"><path
         fill="#770088"
         d="M 0,0 H 777 V 480 H 0 Z"
         id="path1-9"
         style="stroke:#ff7f2a;stroke-opacity:1" /><path
         fill="#004cff"
         d="M 0,0 H 777 V 400 H 0 Z"
         id="path2-36"
         style="stroke:#ff7f2a;stroke-opacity:1" /><path
         fill="#028121"
         d="M 0,0 H 777 V 320 H 0 Z"
         id="path3"
         style="stroke:#ff7f2a;stroke-opacity:1" /><path
         fill="#ffee00"
         d="M 0,0 H 777 V 240 H 0 Z"
         id="path4"
         style="stroke:#ff7f2a;stroke-opacity:1" /><path
         fill="#ff8d00"
         d="M 0,0 H 777 V 160 H 0 Z"
         id="path5"
         style="stroke:#ff7f2a;stroke-opacity:1" /><path
         fill="#e50000"
         d="M 0,0 H 777 V 80 H 0 Z"
         id="path6"
         style="stroke:#ff7f2a;stroke-opacity:1" /></g><circle
       style="display:inline;opacity:1;fill:#ffffff;fill-opacity:1;stroke:#ff2ad4;stroke-width:13.1646;stroke-dasharray:none;stroke-opacity:1;paint-order:normal"
       id="Outer-cirle"
       cx="79.374992"
       cy="79.375"
       r="72.26355" /></g><g
     inkscape:groupmode="layer"
     id="layer2"
     inkscape:label="Stripclub"
     style="display:inline"
     inkscape:highlight-color="#ff2ad4"><path
       style="display:inline;fill:#8a6f91;fill-opacity:1;stroke:#7c6f91;stroke-width:3.70417;stroke-dasharray:none;stroke-opacity:1;paint-order:normal"
       d="M 96.116999,18.834745 V 139.01837"
       id="path15"
       inkscape:label="pole" /><path
       style="display:inline;fill:#ff2ad4;stroke:#ff0000;stroke-width:0"
       d="m 67.570411,27.409121 c -0.839384,0.03319 -1.796071,0.239209 -2.912535,0.650183 -10.662331,3.924844 -0.178569,6.727221 -32.348061,27.523481 0.01341,-6.2e-5 11.815018,-0.0555 17.213292,-2.114313 2.780525,-1.060453 7.335293,-5.088667 7.335293,-5.088667 l 4.89128,2.378941 -4.725345,8.591191 -11.597539,7.302215 c 0,0 -10.074783,10.07776 -12.788365,13.71402 -2.713581,3.636259 -4.411077,4.919247 -4.295324,7.302215 0.115752,2.382967 0.859139,4.775409 3.436367,4.725344 2.577227,-0.05007 1.985119,-4.381744 3.025548,-6.097644 1.543894,-2.546229 2.503729,-4.295311 4.178516,-6.75742 2.963316,-4.356391 6.729879,-8.722332 11.597539,-10.738582 3.441955,-1.425704 8.53063,-3.060222 11.168603,-0.429478 5.681207,5.665634 -2.602902,19.188078 0.552784,26.564881 2.712521,6.340832 10.6964,5.210522 14.052186,11.235712 1.626518,2.92026 2.519789,6.63455 1.717913,9.87961 -2.081726,8.42433 -6.298076,12.71601 -15.893405,20.61876 -3.543681,2.91858 9.542282,0.95245 12.728773,-2.35239 3.915454,-4.06089 8.978292,-10.27061 9.634437,-13.2273 1.520946,-6.85369 -0.210419,-14.7776 -0.826963,-20.7756 -0.436509,-4.246558 18.626215,-1.716931 18.626215,-1.716931 0,0 -10.721513,16.053771 -10.721513,19.309661 0,3.30194 9.964663,8.99994 11.002673,6.07614 0.45052,-1.26898 -3.2632,-5.06742 -2.90983,-8.25932 0.33252,-3.00364 2.97703,-5.26125 4.56213,-7.83418 1.87485,-3.04332 4.51276,-5.04641 5.84946,-8.98813 1.60445,-4.731308 0.80958,-9.681686 -2.9749,-10.143713 -8.62792,-1.053333 -17.846103,4.88472 -26.458564,2.304286 -1.694798,-0.507789 -4.000558,-2.337077 -4.732283,-3.947907 -1.491005,-3.282327 0.701012,-11.095142 0.701012,-11.095142 0,0 7.424533,0.853257 7.822462,-4.641547 0.455881,-6.29504 -8.89853,-4.914512 -7.044151,-7.922648 3.020707,-4.900132 10.32246,-1.30116 13.685814,-4.136906 2.006449,-1.691698 8.54188,-5.497269 9.42059,-7.461176 0.89263,-1.995025 1.28081,-7.128785 -0.79436,-6.442749 -8.62733,2.852145 -8.498258,6.693912 -12.037035,9.094817 -3.26003,2.211787 -10.07004,3.552667 -10.07004,3.552667 0,0 -9.729331,0.569818 -11.168602,-3.006889 -0.931399,-2.314604 2.231537,-4.565217 3.865304,-6.409637 1.633766,-1.84442 4.766631,-2.270482 5.749693,-4.495965 1.361105,-3.081303 1.220543,-7.34528 -0.759721,-10.077012 -2.687637,-3.707549 -4.122018,-6.8067 -7.759348,-6.662878 z"
       id="path14"
       sodipodi:nodetypes="sscsccccsssssssscssssscsssssssscsssssscsssss"
       inkscape:label="dancer" /><path
       style="display:inline;fill:#8a6f91;fill-opacity:1;stroke:#7c6f91;stroke-width:3.70417;stroke-dasharray:none;stroke-opacity:1;paint-order:normal"
       d="m 96.116999,102.15609 v 27.05629"
       id="path17"
       inkscape:label="pole short"
       sodipodi:nodetypes="cc" /></g><g
     inkscape:groupmode="layer"
     id="layer4"
     inkscape:label="Love Hotel"
     inkscape:highlight-color="#3771c8"
     style="display:none"><g
       id="g18"
       transform="matrix(0.16849994,0,0,0.16849994,32.764642,34.033348)"
       inkscape:highlight-color="#3771c8"
       inkscape:label="Bed"><path
         opacity="0.4"
         fill="currentColor"
         d="m 240,192 a 64,64 0 1 1 -128,0 64,64 0 1 1 128,0 z m 48,-64 h 192 c 53,0 96,43 96,96 v 64 H 288 Z"
         id="path1"
         style="fill:#0044aa" /><path
         fill="currentColor"
         d="M 64,32 V 288 H 576 V 480 H 512 V 384 H 64 v 96 H 0 V 32 Z"
         id="path2"
         style="fill:#214478" /></g></g><g
     inkscape:groupmode="layer"
     id="layer5"
     inkscape:label="Brothel"
     inkscape:highlight-color="#ff0000"
     style="display:none"><g
       id="g19"
       transform="matrix(0.17695402,0,0,0.17695402,28.503077,32.167867)"
       style="fill:#ff5555"><path
         opacity="0.4"
         fill="currentColor"
         d="M 0.5,148.8 C 7.6,229.7 86,298 158.6,345.9 c -10.4,-28.5 -15.9,-59 -13.1,-90.7 7.1,-81.3 78.8,-141.5 160.2,-134.4 28,2.5 54.3,12.8 76.2,29.3 1.7,-11.5 2.2,-23.1 1.2,-34.7 C 378.3,60.5 329.9,19.8 274.9,24.6 243,27.4 214.3,45.3 197.9,72.8 L 188.1,89.3 175.5,74.8 C 154.5,50.6 123.2,37.9 91.3,40.7 36.4,45.5 -4.3,93.9 0.5,148.9 Z"
         id="path1-5"
         style="fill:#ff0000" /><path
         fill="currentColor"
         d="m 301.5,168.6 c 31.9,2.8 60.6,20.7 77,48.2 l 9.8,16.5 12.6,-14.5 c 21,-24.2 52.3,-36.9 84.2,-34.1 54.9,4.8 95.6,53.2 90.8,108.2 C 567,395.1 444.2,477.2 363,523.4 291,463.9 184.4,361.7 193.4,259.5 c 4.8,-54.9 53.2,-95.6 108.2,-90.8 z"
         id="path2-3"
         style="fill:#ff2a2a" /></g></g><g
     inkscape:groupmode="layer"
     id="layer10"
     inkscape:label="Swinger club"
     style="display:none"
     inkscape:highlight-color="#37abc8"><path
       fill="currentColor"
       d="m 96.677722,43.617439 c 0,-2.387831 1.929151,-4.316984 4.316988,-4.316984 h 17.26793 c 2.38783,0 4.31699,1.929153 4.31699,4.316984 v 17.26794 c 0,2.38783 -1.92916,4.316982 -4.31699,4.316982 -2.38783,0 -4.31698,-1.929152 -4.31698,-4.316982 v -6.839724 l -12.81605,12.816049 c 2.63067,3.831326 4.18208,8.458589 4.18208,13.463598 0,13.112836 -10.630571,23.743408 -23.743415,23.743408 -13.112838,0 -23.743415,-10.644064 -23.743415,-23.756899 0,-13.112841 10.630577,-23.743418 23.743415,-23.743418 4.99151,0 9.632275,1.537926 13.463599,4.182077 L 107.84793,47.934423 h -6.83972 c -2.387845,0 -4.316994,-1.929151 -4.316994,-4.316984 z M 81.568275,95.421255 a 15.109447,15.109447 0 1 0 0,-30.218894 15.109447,15.109447 0 1 0 0,30.218894 z"
       id="path1-2"
       style="fill:#2c5aa0;stroke-width:0.134905"
       inkscape:label="mars" /><path
       fill="currentColor"
       d="m 44.527305,75.478773 a 14.951951,14.951951 0 1 1 29.903899,0 14.951951,14.951951 0 1 1 -29.903899,0 z M 63.73789,98.587554 c 10.946965,-2.00249 19.237289,-11.587763 19.237289,-23.108781 0,-12.976159 -10.519767,-23.495926 -23.495926,-23.495926 -12.976155,0 -23.495921,10.519767 -23.495921,23.495926 0,11.521018 8.290323,21.106291 19.237287,23.108781 -0.01335,0.1335 -0.01335,0.25365 -0.01335,0.38715 v 8.543966 h -4.271986 c -2.362943,0 -4.271986,1.90904 -4.271986,4.27198 0,2.36294 1.909043,4.27199 4.271986,4.27199 h 4.271986 v 4.27198 c 0,2.36295 1.909045,4.27199 4.271984,4.27199 2.362947,0 4.271987,-1.90904 4.271987,-4.27199 v -4.27198 h 4.271988 c 2.362937,0 4.271987,-1.90905 4.271987,-4.27199 0,-2.36294 -1.90905,-4.27198 -4.271987,-4.27198 H 63.75124 v -8.543966 c 0,-0.1335 0,-0.25365 -0.01339,-0.38715 z"
       id="path1-3"
       style="fill:#c83771;stroke-width:0.133499"
       inkscape:label="venus" /></g><g
     inkscape:groupmode="layer"
     id="layer6"
     inkscape:label="Condom"
     inkscape:highlight-color="#ff80b2"
     style="display:none"><g
       style="fill:#ff80b2;stroke:#782144;stroke-width:6.52751;stroke-dasharray:none;stroke-opacity:1"
       id="g20"
       transform="matrix(0.1824012,0,0,0.1824012,31.946621,22.430209)"><g
         id="g2"
         style="fill:#ff80b2;stroke:#782144;stroke-width:6.52751;stroke-dasharray:none;stroke-opacity:1">
	<g
   id="g1"
   style="fill:#ff80b2;stroke:#782144;stroke-width:6.52751;stroke-dasharray:none;stroke-opacity:1">
		<path
   d="m 483.88072,222.2309 c -8.89478,-35.27822 -35.35718,-59.31955 -72.59067,-65.95116 -48.45284,-8.64829 -100.79781,5.47722 -142.35501,19.86675 -14.9448,-23.95361 -25.58256,-47.52828 -30.7782,-59.98009 -3.27633,-7.83775 -7.60881,-14.74216 -12.87462,-20.527277 -32.12558,-35.225592 -63.12396,-29.051881 -78.7556,-22.244834 -14.36322,6.261431 -26.3931,17.727271 -33.86067,32.293121 -11.45707,22.34133 -9.28162,45.59055 -5.44213,61.15115 2.21053,8.96495 6.50792,17.54218 13.13952,26.21678 11.27198,14.77725 19.93781,31.0861 25.80275,48.54933 -29.61592,22.55273 -54.599364,47.84495 -72.502944,73.4012 -28.145741,40.2107 -38.48526,81.10737 -29.088727,115.15225 7.168452,25.97029 25.063267,46.02213 51.763387,57.98973 29.078194,13.04216 58.042354,18.30885 85.870544,18.30885 86.21441,0 161.51737,-50.59232 195.44822,-77.49595 C 474.95962,351.79901 496.33252,271.58199 483.88072,222.2309 Z M 335.44937,375.9728 c -71.1468,54.28269 -141.88834,74.51085 -189.23153,54.0976 -19.2685,-8.30442 -31.69399,-21.16149 -35.91243,-37.17121 -5.46844,-20.69483 2.65966,-46.18968 23.49571,-73.73541 6.22635,-8.22547 13.46497,-16.41498 21.4615,-24.48168 1.07457,42.15632 -11.36935,74.22049 -11.53602,74.6512 -1.80527,4.50879 0.3965,9.63425 4.90529,11.43952 1.07456,0.43158 2.18422,0.63421 3.27633,0.63421 3.48773,0 6.7895,-2.08685 8.16319,-5.52195 1.04825,-2.60703 25.25625,-64.37484 4.81669,-133.43391 v -0.0526 c -0.0175,-0.0526 -0.0439,-0.10526 -0.0614,-0.15877 -0.0526,-0.18509 -0.0789,-0.3614 -0.14123,-0.54561 -0.0263,-0.0877 -0.0965,-0.15001 -0.12369,-0.23772 -6.45529,-21.35536 -16.58253,-41.24054 -30.19662,-59.08184 -5.13423,-6.7281 -8.41933,-13.18339 -10.03952,-19.75272 -3.12633,-12.64567 -4.96669,-31.39487 4.00704,-48.90197 5.61844,-10.94654 14.58339,-19.54131 25.22993,-24.182558 5.95354,-2.598257 11.87111,-3.892122 17.75359,-3.892122 13.95795,0 27.66942,7.309681 40.9493,21.86588 3.90089,4.27985 7.14214,9.47548 9.63425,15.43779 5.53073,13.23602 17.00534,38.52824 33.12997,64.06607 0.0439,0.0789 0.0439,0.16754 0.0877,0.24649 0.51053,0.79299 1.02193,1.53247 1.52369,2.3158 0.43158,0.6693 0.8193,1.32983 1.25966,1.99913 l 0.35263,0.46667 c 31.28873,47.65986 65.088,72.424 98.77236,72.424 4.89651,0 9.79302,-0.5193 14.67111,-1.56755 4.75529,-1.02193 7.78513,-5.70616 6.76319,-10.46233 -1.02193,-4.75528 -5.68862,-7.7588 -10.46232,-6.75441 -27.44047,5.88248 -52.60023,-11.2983 -72.98716,-34.16857 31.41241,-8.78864 60.45552,-10.46233 84.62931,-4.77283 25.82029,6.10266 40.81772,18.09745 44.55984,35.67472 7.336,34.39664 -27.50275,86.82143 -88.75038,133.55672 z"
   id="path1-56"
   inkscape:label="path1-56"
   style="fill:#ff80b2;stroke:#782144;stroke-width:6.52751;stroke-dasharray:none;stroke-opacity:1" />
	</g>
</g></g></g><g
     inkscape:groupmode="layer"
     id="layer7"
     inkscape:label="register"
     style="display:none"><g
       id="g22"
       transform="matrix(0.17025263,0,0,0.17025263,37.216438,35.92884)"><path
         opacity="0.4"
         fill="currentColor"
         d="m 94.1,48 c 0.3,-0.6 6.8,-13.7 19.6,-39.2 L 118.1,0 h 115.8 c 1,2 7.8,15.6 20.4,40.8 l 3.6,7.2 -3.6,7.2 -24.6,49.2 c -8.5,-2.7 -17.2,-4.8 -26.2,-6.2 -4.5,-0.7 -9,-1.2 -13.6,-1.6 -2.3,-0.2 -4.6,-0.3 -6.9,-0.4 -2.3,-0.1 -4.7,-0.1 -7,-0.1 -18.7,0 -36.8,2.9 -53.7,8.3 L 97.7,55.2 Z M 160,336 c 0,-64.4 34.5,-120.7 86.1,-151.3 16.8,13.5 29.7,31.8 36.5,52.9 -34.9,19 -58.6,56 -58.6,98.5 0,61.9 50.1,112 112,112 61.9,0 112,-50.1 112,-112 0,-38.9 -19.8,-73.1 -49.9,-93.2 -3.7,-28.4 -12.7,-55.1 -26,-79.1 79.9,16.7 139.9,87.5 139.9,172.3 0,97.2 -78.8,176 -176,176 -55.3,0 -104.7,-25.5 -137,-65.5 C 184.2,428.3 173,407 166.5,383.7 162.2,368.4 160,352.5 160,336.1 Z"
         id="path1-1"
         style="opacity:0.689;fill:#ffcc00" /><path
         fill="currentColor"
         d="m 64,272 c 0,-61.9 50.1,-112 112,-112 61.9,0 112,50.1 112,112 0,21.1 -5.8,40.9 -16,57.7 v 6.3 c 0,24 13.2,45 32.8,55.9 C 334.1,360.5 352,318.3 352,272 352,174.8 273.2,96 176,96 78.8,96 0,174.8 0,272 c 0,97.2 78.8,176 176,176 7.8,0 15.5,-0.5 23,-1.5 C 184.2,428.2 173,406.9 166.5,383.6 109.1,378.8 64,330.7 64,272 Z"
         id="path2-2"
         style="fill:#d4aa00" /></g></g><g
     inkscape:groupmode="layer"
     id="layer8"
     inkscape:label="Shop"
     style="display:none"
     inkscape:highlight-color="#ff7f2a"><path
       d="m 83.436251,57.830062 v -4.524789 c 0,-7.562795 -6.135594,-13.698905 -13.698389,-13.698905 -7.562795,0 -13.698905,6.13611 -13.698905,13.698905 v 4.467945 l 6.849194,0.01447 v -4.482414 c 0,-3.781397 3.068314,-6.849194 6.849711,-6.849194 3.781398,0 6.849194,3.067797 6.849194,6.849194 v 4.510319 z"
       style="display:inline;opacity:1;fill:#170b28;stroke:#892ca0;stroke-width:0;stroke-dasharray:none"
       id="path34" /><g
       id="g23"
       transform="matrix(0.14269425,0,0,0.14269425,37.774161,44.172804)"
       style="display:inline;opacity:0.703;fill:#280b0b;fill-opacity:1"><path
         style="opacity:0.63;fill:#280b0b;fill-opacity:1"
         d="m 288,288 v 64 c 0,53 43,96 96,96 53,0 96,-43 96,-96 v -64 h -48 v 64 c 0,26.5 -21.5,48 -48,48 -26.5,0 -48,-21.5 -48,-48 v -64 z"
         id="path24" /><path
         d="m 272.00042,95.608537 -96.00181,-0.19556 v 0.58668 h 96.00181 z"
         style="opacity:0.63;fill:#280b0b;fill-opacity:1"
         id="path35" /><path
         d="m 319.99951,95.709938 -47.99909,-0.101401 v 0.39112 h -96.00181 v -0.58668 l -47.99909,-0.101402 v 0.688082 H -0.00167693 V 448.00024 H 143.99922 V 176.00176 H 448.00071 V 95.999657 h -128.0012 z"
         style="opacity:0.63;fill:#280b0b;fill-opacity:1"
         id="path33" /><path
         fill="currentColor"
         d="M 576,224 H 192 v 288 h 384 z m -240,88 v 40 c 0,26.5 21.5,48 48,48 26.5,0 48,-21.5 48,-48 v -64 h 48 v 64 c 0,53 -43,96 -96,96 -53,0 -96,-43 -96,-96 v -64 h 48 z"
         id="path2-0"
         style="opacity:0.817;fill:#280b0b;fill-opacity:1" /></g></g><g
     inkscape:groupmode="layer"
     id="layer9"
     inkscape:label="Maasge"
     inkscape:highlight-color="#0e8517"
     style="display:none"><path
       id="rect823"
       d="m 69.909616,39.163662 a 8.9622729,8.9622729 0 0 0 -8.962274,8.962276 8.9622729,8.9622729 0 0 0 8.962274,8.962274 8.9622729,8.9622729 0 0 0 8.962276,-8.962274 8.9622729,8.9622729 0 0 0 -8.962276,-8.962276 z m -7.258511,20.970331 c -2.32659,0.306015 -4.424969,1.907059 -5.216333,4.21273 l -7.760297,22.615734 h 12.358149 l 5.659747,-16.477506 6.079895,6.254908 c 0.09253,0.09521 0.21228,0.14 0.315,0.221265 0.101916,0.08984 0.223545,0.146839 0.338468,0.221264 0.178353,0.105939 0.345039,0.214559 0.536802,0.280001 0.09924,0.04024 0.176072,0.111303 0.279999,0.14 l 11.494561,3.232487 c 1.593173,0.448431 3.23918,-0.472432 3.68761,-2.065578 0.448429,-1.593173 -0.472434,-3.227512 -2.065579,-3.675943 L 77.553046,72.047548 67.64553,61.859977 C 67.5758,61.787567 67.487426,61.760747 67.412331,61.697449 66.756582,61.067179 65.984007,60.541241 65.008392,60.285391 64.222299,60.07995 63.426738,60.031809 62.65112,60.134126 Z M 105.4903,80.987589 a 8.9622729,8.9622729 0 0 0 -8.962268,8.962275 8.9622729,8.9622729 0 0 0 8.962268,8.962268 8.9622729,8.9622729 0 0 0 8.96227,-8.962268 8.9622729,8.9622729 0 0 0 -8.96227,-8.962275 z M 42.754391,92.937298 c -3.310064,0 -5.974841,2.664774 -5.974841,5.974834 0,3.310098 2.664777,5.974888 5.974841,5.974888 h 27.120198 8.728888 13.116658 l 12.299795,5.67142 c 0.40016,0.18519 0.81935,0.25761 1.22527,0.2568 0.0858,0.007 0.1581,0.0469 0.245,0.0469 h 11.94969 c 1.65505,0 2.98741,-1.33227 2.98741,-2.9874 0,-1.65504 -1.33228,-2.9875 -2.98741,-2.9875 H 105.85196 L 80.657255,93.252647 c -0.493219,-0.227702 -1.000653,-0.249291 -1.493818,-0.198735 -0.194176,-0.01878 -0.361264,-0.118008 -0.560268,-0.118008 H 59.978444 47.620321 Z"
       style="display:none;fill:#0e8517;fill-opacity:1;stroke:none;stroke-width:4.47638" /></g></svg>
